<?xml version="1.0" encoding="UTF-8" standalone="no"?>
<!-- Created with Inkscape (http://www.inkscape.org/) -->

<svg
   width="48"
   height="48"
   viewBox="0 0 12.7 12.7"
   version="1.1"
   id="svg12471"
   inkscape:version="1.2.2 (732a01da63, 2022-12-09)"
   sodipodi:docname="NDVI.svg"
   inkscape:export-filename="NDVI.png"
   inkscape:export-xdpi="96"
   inkscape:export-ydpi="96"
   xml:space="preserve"
   xmlns:inkscape="http://www.inkscape.org/namespaces/inkscape"
   xmlns:sodipodi="http://sodipodi.sourceforge.net/DTD/sodipodi-0.dtd"
   xmlns="http://www.w3.org/2000/svg"
   xmlns:svg="http://www.w3.org/2000/svg"><sodipodi:namedview
     id="namedview12473"
     pagecolor="#505050"
     bordercolor="#eeeeee"
     borderopacity="1"
     inkscape:showpageshadow="0"
     inkscape:pageopacity="0"
     inkscape:pagecheckerboard="0"
     inkscape:deskcolor="#505050"
     inkscape:document-units="mm"
     showgrid="false"
     inkscape:zoom="15.999999"
     inkscape:cx="24.968751"
     inkscape:cy="21.500001"
     inkscape:window-width="2400"
     inkscape:window-height="1284"
     inkscape:window-x="-9"
     inkscape:window-y="-9"
     inkscape:window-maximized="1"
     inkscape:current-layer="layer1" /><defs
     id="defs12468" /><g
     inkscape:label="Ebene 1"
     inkscape:groupmode="layer"
     id="layer1"><g
       id="g1087"><path
         style="fill:#000000;stroke-width:0.0200924"
         d="m 11.765176,6.2280346 c -0.160921,0.051414 -0.372273,0.068653 -0.553088,0.045113 C 11.129305,6.2623691 9.5868931,5.8580151 7.78451,5.3745816 L 4.5074491,4.4956115 4.4320439,4.5709532 C 3.9255939,5.0769689 3.2563427,5.352385 2.5550384,5.3433948 1.8443969,5.3342847 1.1858429,5.0447732 0.6682938,4.5139503 0.45806697,4.2983316 0.08880675,3.6509989 0.08358593,3.4889266 0.08287214,3.466767 0.09548199,3.4410187 0.11160874,3.4317083 0.12773444,3.4223958 0.61681037,3.5419827 1.1984432,3.6974524 1.7800759,3.8529221 2.2650407,3.9748802 2.2761427,3.9684705 2.2970713,3.9563872 3.1862416,2.9125591 3.1911224,2.8943439 3.1926415,2.8886836 3.1366646,2.5697826 3.0667317,2.1856813 L 2.9395818,1.4873155 1.8682388,1.1995703 C 1.2790001,1.0413104 0.78967079,0.89931132 0.78084046,0.88401676 0.75536584,0.83989218 0.7799859,0.80282429 0.90495821,0.6971464 1.0988152,0.53321911 1.5228807,0.29971967 1.7675691,0.22217457 2.2915499,0.05611769 2.792176,0.05212861 3.3264469,0.20975305 3.8348428,0.35974344 4.2333268,0.61686384 4.5883481,1.0239903 4.8210856,1.2908859 5.0657743,1.7724031 5.1190355,2.0683187 l 0.013828,0.076818 3.3849433,0.9109926 c 3.7075252,0.9978093 3.4910302,0.9295635 3.7324782,1.1765856 0.213371,0.2182967 0.319502,0.4606852 0.343627,0.7848003 0.02068,0.2777036 -0.03173,0.4823971 -0.180362,0.7045144 -0.170104,0.2542056 -0.384874,0.4218173 -0.648374,0.506005 z"
         id="path779" /><text
         xml:space="preserve"
         style="font-style:normal;font-weight:normal;font-size:5.59624px;line-height:1.25;font-family:sans-serif;fill:#000000;fill-opacity:1;stroke:none;stroke-width:0.139906"
         x="-0.21235138"
         y="10.668231"
         id="text3235-7"
         transform="scale(0.85288362,1.1724929)"><tspan
           sodipodi:role="line"
           id="tspan3233-7"
           style="font-style:normal;font-variant:normal;font-weight:900;font-stretch:normal;font-family:Arial;-inkscape-font-specification:'Arial Heavy';stroke-width:0.139906"
           x="-0.21235138"
           y="10.668231">NDVI</tspan></text></g><circle
       id="path2152"
       style="fill:#ffffff;stroke:#000000;stroke-width:0.264583"
       cx="0.65131581"
       cy="4.2118421"
       r="0" /><circle
       id="path2154"
       style="fill:#ffffff;stroke:#000000;stroke-width:0.264583"
       cx="6.3177633"
       cy="1.3677632"
       r="0" /><circle
       id="path2156"
       style="fill:#ffffff;stroke:#000000;stroke-width:0.264583"
       cx="12.136184"
       cy="4.2118421"
       r="0" /><circle
       id="path2162"
       style="fill:#ffffff;stroke:#000000;stroke-width:0.264583"
       cx="-3.886184"
       cy="2.561842"
       r="0" /></g></svg>
